<?xml version="1.0" encoding="utf-8"?>
<!-- Generator: Adobe Illustrator 19.1.0, SVG Export Plug-In . SVG Version: 6.00 Build 0)  -->
<svg version="1.1" id="Layer_1" xmlns="http://www.w3.org/2000/svg" xmlns:xlink="http://www.w3.org/1999/xlink" x="0px" y="0px"
	 viewBox="0 0 678.5 254.7" style="enable-background:new 0 0 678.5 254.7;" xml:space="preserve">
<style type="text/css">
	.st0{fill:#3964A4;}
	.st1{clip-path:url(#SVGID_2_);fill:#3964A4;}
</style>
<polygon class="st0" points="303.3,207 299.2,254 325.6,254 326.2,246.7 309.1,246.7 312.5,207 "/>
<polygon class="st0" points="334.8,207 330.7,254 339.8,254 343.9,207 "/>
<g>
	<defs>
		<rect id="SVGID_1_" width="678.5" height="254.7"/>
	</defs>
	<clipPath id="SVGID_2_">
		<use xlink:href="#SVGID_1_"  style="overflow:visible;"/>
	</clipPath>
	<path class="st1" d="M347.4,254l4.1-47h13.9c4.8,0,8.5,1.1,11.1,3.2c2.5,2.2,3.6,5.4,3.2,9.6c-0.2,2.2-0.9,4.2-2,6
		c-1.1,1.7-2.7,3-4.8,3.9c2.4,0.6,4.1,1.8,5.2,3.8c1,1.9,1.4,4.2,1.2,6.8c-0.4,4.5-2,7.9-4.8,10.2c-2.8,2.3-6.6,3.5-11.4,3.5H347.4z
		 M358.4,233.2l-1.2,13.4h6.5c1.9,0,3.4-0.5,4.5-1.6c1-1.1,1.7-2.7,1.8-4.8c0.2-2.2-0.1-3.9-0.8-5.2c-0.7-1.2-2-1.8-3.8-1.8H358.4z
		 M359,226.8h5c1.9,0,3.4-0.6,4.5-1.6c1.1-1,1.7-2.5,1.9-4.5c0.2-2.2-0.2-3.8-1.1-4.8c-0.9-1-2.5-1.5-4.6-1.5h-4.6L359,226.8z"/>
	<path class="st1" d="M394.9,235.3l-1.7,18.7h-9.2l4.1-47h15.3c4.6,0,8.2,1.2,10.6,3.7c2.4,2.4,3.4,5.9,3.1,10.2
		c-0.2,2.5-1,4.6-2.2,6.3c-1.3,1.8-3,3.2-5.2,4.3c2.3,0.8,4,2.2,4.8,4.1c0.9,1.9,1.2,4.3,1,7.1l-0.3,3.3c-0.1,1.3-0.1,2.7,0.1,4.1
		c0.2,1.5,0.6,2.5,1.3,3.2l-0.1,0.7h-9.5c-0.7-0.7-1.1-1.8-1.1-3.4c0-1.5,0-3.1,0.1-4.8l0.3-3.2c0.2-2.3-0.1-4.2-1-5.5
		c-0.9-1.3-2.2-1.9-3.9-1.9H394.9z M395.6,228h6.1c1.9,0,3.3-0.6,4.4-1.7c1.1-1.2,1.7-2.8,1.9-4.9c0.2-2.2-0.1-3.9-1-5.1
		c-0.9-1.3-2.2-1.9-4.1-1.9h-6.2L395.6,228z"/>
	<path class="st1" d="M454.8,237.1c-0.5,5.5-2.4,9.8-5.6,12.9c-3.3,3.1-7.4,4.6-12.4,4.6c-5,0-8.8-1.5-11.5-4.6
		c-2.7-3.1-3.8-7.4-3.3-12.9l1.1-13.2c0.5-5.5,2.4-9.8,5.6-12.9c3.2-3.1,7.3-4.7,12.3-4.7c5,0,8.8,1.6,11.5,4.7
		c2.7,3.1,3.9,7.5,3.4,12.9L454.8,237.1z M446.8,223.8c0.3-3.4-0.1-5.9-1.2-7.6c-1.1-1.7-2.8-2.6-5.2-2.6c-2.4,0-4.3,0.9-5.7,2.6
		c-1.3,1.7-2.2,4.3-2.5,7.7l-1.2,13.3c-0.3,3.4,0.1,6,1.2,7.7c1.1,1.7,2.8,2.6,5.2,2.6c2.4,0,4.3-0.8,5.7-2.6
		c1.4-1.7,2.2-4.3,2.5-7.7L446.8,223.8z"/>
	<path class="st1" d="M481.2,241.7c0.2-1.8-0.2-3.3-1-4.3c-0.8-1.1-2.4-2.1-4.7-3.2c-4.7-1.7-8.2-3.6-10.5-5.8
		c-2.3-2.1-3.2-5.2-2.9-9.1c0.3-3.9,2-7,5.1-9.4c3.1-2.4,6.8-3.6,11.2-3.6c4.5,0,8,1.4,10.6,4.1c2.6,2.7,3.6,6.1,3.2,10.2l-0.1,0.2
		h-8.9c0.2-2.1-0.2-3.9-1.1-5.2c-1-1.3-2.4-2-4.4-2c-1.8,0-3.3,0.5-4.4,1.7c-1.1,1.1-1.8,2.5-1.9,4.2c-0.1,1.5,0.3,2.8,1.4,3.8
		c1.1,1,2.9,2.1,5.7,3.3c4.3,1.5,7.5,3.4,9.6,5.7c2.1,2.3,2.9,5.5,2.6,9.4c-0.4,4.1-2,7.3-4.9,9.6c-2.9,2.3-6.6,3.5-11.1,3.5
		c-4.5,0-8.2-1.3-11.3-3.9c-3.1-2.6-4.3-6.4-3.8-11.3l0.1-0.2h9c-0.3,2.9,0.2,5,1.3,6.3c1.1,1.3,2.9,1.9,5.4,1.9
		c1.9,0,3.4-0.5,4.5-1.5C480.5,244.9,481.1,243.5,481.2,241.7"/>
	<polygon class="st1" points="526.4,227.1 526.6,227.1 536.2,207 546.2,207 530.1,237.2 528.6,254 519.5,254 521,236.7 510.4,207 
		520.4,207 	"/>
	<polygon class="st1" points="576.3,207 581.7,241.5 581.9,241.5 593.4,207 605.4,207 601.3,254 592.1,254 593.3,240.3 595.7,222 
		595.5,222 583.7,254 577.6,254 571.5,222.3 571.3,222.3 570.6,240.3 569.4,254 560.2,254 564.4,207 	"/>
	<path class="st1" d="M630.8,243.9h-12.4L615,254h-9.3l17.4-47h9.6l9.1,47h-9.3L630.8,243.9z M620.9,236.6h8.7l-2.8-16.6h-0.2
		L620.9,236.6z M629.9,195h9.7l0.1,0.2l-8.8,8.4l-7.4,0L629.9,195z"/>
	<path class="st1" d="M667.4,241.7c0.2-1.8-0.2-3.3-1-4.3c-0.8-1.1-2.4-2.1-4.7-3.2c-4.7-1.7-8.2-3.6-10.5-5.8
		c-2.2-2.1-3.2-5.2-2.9-9.1c0.3-3.9,2-7,5.1-9.4c3.1-2.4,6.8-3.6,11.2-3.6c4.5,0,8,1.4,10.6,4.1c2.6,2.7,3.6,6.1,3.2,10.2l-0.1,0.2
		h-8.9c0.2-2.1-0.2-3.9-1.2-5.2c-1-1.3-2.4-2-4.4-2c-1.8,0-3.3,0.5-4.4,1.7c-1.1,1.1-1.7,2.5-1.9,4.2c-0.1,1.5,0.3,2.8,1.4,3.8
		c1.1,1,2.9,2.1,5.7,3.3c4.3,1.5,7.5,3.4,9.6,5.7c2.1,2.3,2.9,5.5,2.6,9.4c-0.4,4.1-2,7.3-4.9,9.6c-2.9,2.3-6.6,3.5-11.1,3.5
		c-4.5,0-8.2-1.3-11.3-3.9c-3.1-2.6-4.3-6.4-3.8-11.3l0.1-0.2h9c-0.3,2.9,0.2,5,1.3,6.3c1.1,1.3,2.9,1.9,5.4,1.9
		c2,0,3.4-0.5,4.4-1.5C666.6,244.9,667.2,243.5,667.4,241.7"/>
	<path class="st1" d="M150,121.1c-9.8,17.3-28.8,29-50.7,29c-31.8,0-57.7-24.7-57.7-55.1c0-30.5,25.8-55.1,57.7-55.1
		c21.9,0,41,11.7,50.7,28.9l31.8-26.5C164,16.8,133.7,0,99.3,0C44.5,0,0,42.5,0,94.9c0,52.4,44.5,95,99.3,95
		c34.4,0,64.7-16.8,82.6-42.2L150,121.1z"/>
	<path class="st1" d="M188,183.4V66.6h42.9V81c6.7-11.4,17.8-17.1,32.9-17.1c2.5,0,8.8,0.7,10,0.7v38.9c-3.9-0.7-7.7-1.2-11.6-1.2
		c-20.4,0-31.3,10.7-31.3,29.2v51.9H188z"/>
	<path class="st1" d="M292.5,54.5c-9.3-9.3-9.3-24.1,0-33.1c9.3-9.3,24.1-9.3,33.4,0c9.3,9,9.3,23.9,0,33.1
		C316.6,63.6,301.8,63.6,292.5,54.5 M287.9,66.6h42.9v68.1c0,8.6,1.8,12.3,7.4,12.3l3.2-0.2v36.4c-4.2,1.1-10.4,1.8-18.5,1.8
		c-23.4,0-35-12.3-35-36.6V66.6z"/>
	<path class="st1" d="M370.2,140.5c8.3,7,19.9,10.4,35,10.4c8.6,0,13-0.9,13-5.6c0-1.6-1.6-2.8-5.1-3.5c-3.3-0.9-8.1-1.8-14.8-2.8
		c-6.7-1.1-12.3-2.5-17.2-4.1c-16.5-5.8-24.6-16.2-24.6-31.3c0-13.2,4.9-23.2,14.8-30.1c10-7,21.6-10.4,35.2-10.4
		c15.3,0,29.7,4.2,43.1,12.5L433,104.4c-8.6-4.9-17.8-7.4-27.8-7.4c-6.9,0-10.4,1.6-10.4,4.9c0,2.1,0.9,3.2,2.8,3.9l13.2,2.3
		c6.7,1.2,13.9,2.8,21.1,5.3c17.1,5.8,25.7,16.2,25.7,31.5c0,25.9-18.1,41.9-54.5,41.9c-21.6,0-40.1-5.8-55.6-17.6L370.2,140.5z"/>
	<path class="st1" d="M579.7,81.4c13,12.1,19.5,26.7,19.5,43.6c0,16.9-6.5,31.5-19.5,43.8c-13,12.1-28.5,18.1-46.8,18.1
		c-18.3,0-34.1-6-47.1-18.1c-12.7-12.3-19.2-26.9-19.2-43.8c0-16.9,6.5-31.5,19.2-43.6c13-12.3,28.8-18.3,47.1-18.3
		C551.2,63.1,566.7,69.1,579.7,81.4 M549.8,141c4.9-4.4,7.2-9.7,7.2-16c0-6.3-2.3-11.6-7.2-16c-4.9-4.4-10.4-6.7-16.9-6.7
		c-13.2,0-24.1,10.4-24.1,22.7c0,12.3,10.9,22.7,24.1,22.7C539.4,147.7,545,145.4,549.8,141"/>
	<path class="st1" d="M614.5,21.9h42.9v113.6c0,9.5,3.7,13.4,12.7,13.4c3,0,5.8-0.2,8.3-0.7v36.2c-5.3,1.2-12.1,1.9-20.2,1.9
		c-29.2,0-43.8-14.8-43.8-44.7V21.9z"/>
</g>
</svg>
